<?xml version="1.0" encoding="utf-8"?>
<!-- Generator: Adobe Illustrator 17.0.0, SVG Export Plug-In . SVG Version: 6.00 Build 0)  -->
<!DOCTYPE svg PUBLIC "-//W3C//DTD SVG 1.1//EN" "http://www.w3.org/Graphics/SVG/1.1/DTD/svg11.dtd">
<svg version="1.1" id="Layer_1" xmlns="http://www.w3.org/2000/svg" xmlns:xlink="http://www.w3.org/1999/xlink" x="0px" y="0px"
	 width="595.28px" height="841.89px" viewBox="0 0 595.28 841.89" enable-background="new 0 0 595.28 841.89" xml:space="preserve">
<g>
	<g>
		<path id="XMLID_1828_" fill="#A7A9AC" d="M584.087,672.841v-29.807c0-6.326-2.798-12.288-7.665-16.302
			c-27.008-22.142-56.085-36.863-62.046-39.783c-0.608-0.365-1.095-0.973-1.095-1.703v-41.973c5.231-3.528,8.759-9.489,8.759-16.302
			v-43.554c0-21.655-17.519-39.296-39.296-39.296H478h-4.745c-21.655,0-39.296,17.519-39.296,39.296v43.311
			c0,6.813,3.528,12.774,8.76,16.302v42.094c0,0.73-0.365,1.46-1.095,1.703c-5.961,2.92-35.038,17.641-62.046,39.783
			c-4.866,4.015-7.665,9.976-7.665,16.302v29.807"/>
		<path id="XMLID_1827_" fill="#3C92CA" d="M222.759,672.841v-29.807c0-6.326-2.798-12.288-7.665-16.302
			c-27.008-22.142-56.085-36.863-62.046-39.783c-0.608-0.365-1.095-0.973-1.095-1.703v-41.973c5.231-3.528,8.759-9.489,8.759-16.302
			v-43.554c0-21.655-17.519-39.296-39.296-39.296h-4.745h-4.745c-21.655,0-39.296,17.519-39.296,39.296v43.311
			c0,6.813,3.528,12.774,8.759,16.302v42.094c0,0.73-0.365,1.46-1.095,1.703c-5.961,2.92-35.038,17.641-62.046,39.783
			c-4.866,4.015-7.665,9.976-7.665,16.302v29.807"/>
		<path fill="#FFFFFF" d="M298.431,409.57c-6.083,0-11.071,4.988-11.071,11.071v69.833l-60.465,34.916
			c-5.231,3.042-7.056,9.733-4.015,15.086c2.068,3.528,5.718,5.475,9.611,5.475c1.825,0,3.771-0.487,5.475-1.46l60.465-34.916
			l60.465,34.916c1.703,0.973,3.65,1.46,5.475,1.46c3.771,0,7.543-1.947,9.611-5.475c3.041-5.231,1.217-12.044-4.015-15.086
			l-60.465-34.916v-69.833C309.38,414.558,304.514,409.57,298.431,409.57z"/>
		<path fill="#FFFFFF" d="M251.227,304.578c-11.193,5.84-35.89,19.587-59.127,38.566c-7.421,6.083-11.679,15.207-11.679,24.819
			v29.807c0,6.083,4.988,11.071,11.071,11.071c6.083,0,11.071-4.988,11.071-11.071v-29.807c0-3.042,1.338-5.84,3.65-7.786
			c26.157-21.412,54.503-35.768,59.856-38.444c4.501-2.19,7.3-6.691,7.3-11.679V268.08c0-3.65-1.825-7.178-4.866-9.124
			c-2.433-1.582-3.893-4.258-3.893-7.178v-43.554c0-15.572,12.653-28.225,28.225-28.225h9.368c15.572,0,28.225,12.653,28.225,28.225
			v43.554c0,2.92-1.46,5.596-3.893,7.178c-3.042,2.068-4.866,5.475-4.866,9.124v42.094c0,4.988,2.798,9.489,7.3,11.679
			c5.475,2.677,33.7,16.911,59.857,38.444c2.312,1.947,3.65,4.745,3.65,7.786v29.807c0,6.083,4.988,11.071,11.071,11.071
			c6.083,0,11.071-4.988,11.071-11.071v-29.807c0-9.611-4.258-18.736-11.679-24.819c-23.115-18.979-47.934-32.848-59.127-38.566
			v-31.388c5.596-5.718,8.759-13.383,8.759-21.412v-43.676c0-27.738-22.507-50.245-50.245-50.245h-9.368
			c-27.738,0-50.245,22.507-50.245,50.245v43.554c0,8.151,3.163,15.816,8.759,21.412v31.388H251.227z"/>
		<path fill="#FFFFFF" d="M112.17,454.949h9.368c15.572,0,28.225,12.653,28.225,28.225v43.554c0,2.92-1.46,5.596-3.893,7.178
			c-3.041,2.068-4.866,5.475-4.866,9.124v42.094c0,4.988,2.798,9.489,7.3,11.679c5.475,2.677,33.7,16.911,59.856,38.444
			c2.312,1.947,3.65,4.745,3.65,7.786v29.807c0,6.083,4.988,11.071,11.071,11.071s11.071-4.988,11.071-11.071v-29.807
			c0-9.611-4.258-18.736-11.679-24.819c-23.115-18.979-47.934-32.848-59.127-38.566v-31.388c5.596-5.718,8.759-13.383,8.759-21.412
			v-43.554c0-27.738-22.507-50.245-50.245-50.245h-9.368c-27.738,0-50.245,22.507-50.245,50.245v43.432
			c0,8.151,3.163,15.816,8.759,21.412v31.388c-11.193,5.84-35.89,19.587-59.127,38.566C4.258,624.177,0,633.302,0,642.913v29.807
			c0,6.083,4.988,11.071,11.071,11.071s11.071-4.988,11.071-11.071v-29.807c0-3.041,1.338-5.84,3.65-7.786
			c26.157-21.412,54.503-35.768,59.856-38.444c4.501-2.19,7.3-6.691,7.3-11.679V543.03c0-3.65-1.825-7.178-4.866-9.124
			c-2.433-1.582-3.893-4.258-3.893-7.178v-43.554C83.945,467.601,96.598,454.949,112.17,454.949z"/>
		<path fill="#FFFFFF" d="M372.765,618.094c-7.421,6.083-11.679,15.207-11.679,24.819v29.807c0,6.083,4.988,11.071,11.071,11.071
			s11.071-4.988,11.071-11.071v-29.807c0-3.041,1.338-5.84,3.65-7.786c26.157-21.412,54.503-35.768,59.857-38.444
			c4.501-2.19,7.3-6.691,7.3-11.679V543.03c0-3.65-1.825-7.178-4.866-9.124c-2.433-1.582-3.893-4.258-3.893-7.178v-43.554
			c0-15.572,12.653-28.225,28.225-28.225h9.368c15.572,0,28.225,12.653,28.225,28.225v43.554c0,2.92-1.46,5.596-3.893,7.178
			c-3.041,2.068-4.866,5.475-4.866,9.124v42.094c0,4.988,2.798,9.489,7.3,11.679c5.475,2.677,33.7,16.911,59.856,38.444
			c2.312,1.947,3.65,4.745,3.65,7.786v29.807c0,6.083,4.988,11.071,11.071,11.071c6.083,0,11.071-4.988,11.071-11.071v-29.807
			c0-9.611-4.258-18.736-11.679-24.819c-23.115-18.979-47.934-32.848-59.127-38.566v-31.388c5.596-5.718,8.759-13.383,8.759-21.412
			v-43.554c0-27.738-22.507-50.245-50.245-50.245h-9.368c-27.738,0-50.245,22.507-50.245,50.245v43.432
			c0,8.151,3.163,15.816,8.76,21.412v31.388C420.699,585.368,396.002,599.115,372.765,618.094z"/>
	</g>
</g>
</svg>
