<?xml version="1.0" encoding="utf-8"?>
<!-- Generator: Adobe Illustrator 17.0.0, SVG Export Plug-In . SVG Version: 6.00 Build 0)  -->
<!DOCTYPE svg PUBLIC "-//W3C//DTD SVG 1.1//EN" "http://www.w3.org/Graphics/SVG/1.1/DTD/svg11.dtd">
<svg version="1.1" id="Layer_1" xmlns="http://www.w3.org/2000/svg" xmlns:xlink="http://www.w3.org/1999/xlink" x="0px" y="0px"
	 width="595.28px" height="841.89px" viewBox="0 0 595.28 841.89" enable-background="new 0 0 595.28 841.89" xml:space="preserve">
<g>
	<g>
		<path fill="#3C92CA" d="M548.575,709.085l37.144-37.144c4.904-4.904,4.904-12.749,0-17.652L402.819,471.389l-54.796,54.796
			l182.899,182.899C535.826,713.988,543.671,713.988,548.575,709.085z"/>
		<path fill="#FFFFFF" d="M200.306,205.499c-65.216,0-118.296,53.08-118.296,118.296c0,6.129,5.026,11.155,11.155,11.155
			s11.155-5.026,11.155-11.155c0-52.957,43.028-95.985,95.985-95.985c6.129,0,11.155-5.026,11.155-11.155
			C211.462,210.403,206.436,205.499,200.306,205.499z"/>
		<path fill="#FFFFFF" d="M410.665,463.544c-4.291-4.291-11.401-4.291-15.691,0l-19.491,19.491l-25.866-25.866
			c31.75-35.427,51.119-82.256,51.119-133.497c0-110.45-89.856-200.306-200.306-200.306S0,213.222,0,323.673
			s89.856,200.306,200.306,200.306c51.241,0,97.947-19.369,133.497-51.119l25.866,25.866l-19.491,19.491
			c-2.084,2.084-3.31,4.904-3.31,7.846c0,2.942,1.226,5.762,3.31,7.846l173.95,173.95c6.865,6.865,15.936,10.665,25.621,10.665
			s18.756-3.8,25.621-10.665l19.246-19.246c6.865-6.865,10.665-15.936,10.665-25.621s-3.8-18.756-10.665-25.621L410.665,463.544z
			 M22.311,323.673c0-98.192,79.926-178.118,178.118-178.118s178.118,79.926,178.118,178.118s-79.926,178.118-178.118,178.118
			S22.311,421.864,22.311,323.673z M568.924,673.044l-19.246,19.246c-2.697,2.697-6.129,4.168-9.93,4.168s-7.233-1.471-9.93-4.168
			L363.714,526.186l39.105-39.105l166.105,166.105c2.697,2.697,4.168,6.129,4.168,9.93S571.498,670.47,568.924,673.044z"/>
	</g>
</g>
</svg>
