<?xml version="1.0" encoding="utf-8"?>
<!-- Generator: Adobe Illustrator 17.0.0, SVG Export Plug-In . SVG Version: 6.00 Build 0)  -->
<!DOCTYPE svg PUBLIC "-//W3C//DTD SVG 1.1//EN" "http://www.w3.org/Graphics/SVG/1.1/DTD/svg11.dtd">
<svg version="1.1" id="Layer_1" xmlns="http://www.w3.org/2000/svg" xmlns:xlink="http://www.w3.org/1999/xlink" x="0px" y="0px"
	 width="595.28px" height="841.89px" viewBox="0 0 595.28 841.89" enable-background="new 0 0 595.28 841.89" xml:space="preserve">
<g>
	<g>
		
			<rect id="XMLID_60_" x="-17.398" y="302.398" transform="matrix(-0.3244 0.9459 -0.9459 -0.3244 431.5711 377.0986)" fill="#A7A9AC" width="197.035" height="80.539"/>
		<path fill="#FFFFFF" d="M206.514,252.195l-7.41,3.645c-9.233,4.495-20.045,5.102-29.642,1.701l-12.391-4.373
			c-0.729-0.486-1.458-0.85-2.187-1.093l-76.291-26.119c-5.71-1.944-12.027,1.093-13.971,6.803L0.6,419.235
			c-0.972,2.794-0.729,5.831,0.486,8.382c1.215,2.551,3.523,4.616,6.317,5.588l76.17,26.119c1.215,0.364,2.43,0.607,3.523,0.607
			c4.616,0,8.868-2.916,10.448-7.41l60.377-175.665l4.13,1.458c15.185,5.345,32.193,4.373,46.771-2.673l7.41-3.645
			c9.111-4.495,19.802-5.102,29.399-1.822l140.07,48.229c-1.458,5.831-4.373,12.756-9.719,16.522
			c-5.953,4.13-14.821,4.13-26.483,0.121l-62.442-21.381c-2.916-0.972-6.074-0.729-8.747,0.729
			c-2.673,1.458-4.616,4.009-5.467,6.925c-0.121,0.364-8.747,32.679-36.323,47.5c-17.372,9.354-38.996,9.719-64.386,1.093
			c-5.71-1.944-12.027,1.093-13.971,6.803c-1.944,5.71,1.093,12.027,6.803,13.971c14.578,4.981,28.306,7.532,41.061,7.532
			c14.821,0,28.427-3.28,40.818-9.962c24.661-13.242,37.417-36.445,43.248-50.294l52.116,17.858
			c18.587,6.439,34.137,5.467,46.164-2.916c19.316-13.363,20.288-40.454,20.409-41.669c0.121-4.859-2.916-9.111-7.41-10.691
			l-148.695-51.266C237.735,244.177,220.849,245.271,206.514,252.195z M80.415,434.906l-55.396-18.951l56.733-165.582l55.396,18.951
			L80.415,434.906z"/>
		
			<rect id="XMLID_142_" x="406.136" y="303.581" transform="matrix(0.4395 0.8982 -0.8982 0.4395 591.7024 -260.5718)" fill="#3C92CA" width="197.024" height="80.533"/>
		<path fill="#FFFFFF" d="M498.317,447.419l-26.119,24.054c-23.689,21.746-50.416,40.089-79.329,54.182l-138.612,67.788
			c-6.074,3.037-13.485,0.486-16.522-5.71c-3.037-6.074-0.486-13.485,5.71-16.522l1.701-0.85l0,0l75.806-37.052
			c5.467-2.673,7.775-9.233,5.102-14.7c-2.673-5.467-9.233-7.775-14.699-5.102l-75.806,37.052l0,0l-38.146,18.708
			c-6.074,3.037-13.485,0.486-16.522-5.71c-1.458-2.916-1.701-6.317-0.607-9.354c1.093-3.159,3.28-5.588,6.196-7.046l28.792-14.092
			l0,0l82.366-40.332c5.467-2.673,7.775-9.233,5.102-14.699c-2.673-5.467-9.233-7.775-14.699-5.102l-82.487,40.454l0,0l-3.159,1.579
			l-39.361,19.316c-2.916,1.458-6.317,1.701-9.354,0.607c-3.159-1.093-5.588-3.28-7.046-6.196
			c-3.037-6.074-0.486-13.485,5.71-16.522l13.606-6.682l0,0l27.82-13.606l7.775-3.766l0,0l63.9-31.343
			c5.467-2.673,7.775-9.233,5.102-14.699c-2.673-5.467-9.233-7.775-14.699-5.102l-69.245,33.894l-30.249,14.821
			c-6.074,2.916-13.485,0.486-16.522-5.71c-1.458-2.916-1.701-6.317-0.607-9.354c1.093-3.159,3.28-5.588,6.196-7.046l52.845-25.876
			c5.467-2.673,7.775-9.233,5.102-14.699c-2.673-5.467-9.233-7.775-14.699-5.102l-52.845,25.876
			c-8.261,4.009-14.457,11.055-17.372,19.68c-2.916,8.625-2.43,17.979,1.579,26.24c2.551,5.102,6.196,9.354,10.569,12.513
			c-7.653,10.083-9.597,23.932-3.645,36.081c4.009,8.261,11.055,14.456,19.68,17.372c3.645,1.215,7.289,1.822,10.933,1.822
			c-0.121,5.467,0.972,10.933,3.523,15.914c5.953,12.148,18.222,19.194,30.857,19.194c5.102,0,10.205-1.093,15.064-3.523
			l7.775-3.766c0.364,4.13,1.458,8.139,3.28,12.027c5.953,12.148,18.222,19.194,30.857,19.194c5.102,0,10.205-1.093,15.064-3.523
			l138.612-67.788c30.857-15.064,59.284-34.501,84.552-57.705l30.978-28.549l70.946-34.744c5.467-2.673,7.775-9.233,5.102-14.699
			l-86.739-176.758c-1.336-2.673-3.523-4.616-6.317-5.588c-2.794-0.972-5.831-0.729-8.382,0.486l-72.404,35.352
			c-5.467,2.673-7.775,9.233-5.102,14.699L498.317,447.419z M492.486,252.317l76.899,157.321l-52.602,25.754l-76.899-157.321
			L492.486,252.317z"/>
	</g>
</g>
</svg>
