<svg xmlns="http://www.w3.org/2000/svg" width="595.28" height="841.89" viewBox="0 0 595.28 841.89"><path fill="#A7A9AC" d="M151.177 262.544L87.259 448.919l-76.182-26.127 63.918-186.375z"/><path fill="#FFF" d="M206.514 252.195l-7.41 3.645c-9.233 4.495-20.045 5.102-29.642 1.701l-12.391-4.373a9.197 9.197 0 0 0-2.187-1.093l-76.291-26.119c-5.71-1.944-12.027 1.093-13.971 6.803L.6 419.235c-.972 2.794-.729 5.831.486 8.382 1.215 2.551 3.523 4.616 6.317 5.588l76.17 26.119c1.215.364 2.43.607 3.523.607 4.616 0 8.868-2.916 10.448-7.41l60.377-175.665 4.13 1.458c15.185 5.345 32.193 4.373 46.771-2.673l7.41-3.645c9.111-4.495 19.802-5.102 29.399-1.822l140.07 48.229c-1.458 5.831-4.373 12.756-9.719 16.522-5.953 4.13-14.821 4.13-26.483.121l-62.442-21.381c-2.916-.972-6.074-.729-8.747.729s-4.616 4.009-5.467 6.925c-.121.364-8.747 32.679-36.323 47.5-17.372 9.354-38.996 9.719-64.386 1.093-5.71-1.944-12.027 1.093-13.971 6.803-1.944 5.71 1.093 12.027 6.803 13.971 14.578 4.981 28.306 7.532 41.061 7.532 14.821 0 28.427-3.28 40.818-9.962 24.661-13.242 37.417-36.445 43.248-50.294l52.116 17.858c18.587 6.439 34.137 5.467 46.164-2.916 19.316-13.363 20.288-40.454 20.409-41.669.121-4.859-2.916-9.111-7.41-10.691l-148.695-51.266c-14.942-5.101-31.828-4.007-46.163 2.917zM80.415 434.906l-55.396-18.951 56.733-165.582 55.396 18.951-56.733 165.582z"/><path fill="#3C92CA" d="M497.523 237.643l86.592 176.967-72.335 35.395-86.592-176.967z"/><path fill="#FFF" d="M498.317 447.419l-26.119 24.054c-23.689 21.746-50.416 40.089-79.329 54.182l-138.612 67.788c-6.074 3.037-13.485.486-16.522-5.71-3.037-6.074-.486-13.485 5.71-16.522l1.701-.85 75.806-37.052c5.467-2.673 7.775-9.233 5.102-14.7-2.673-5.467-9.233-7.775-14.699-5.102l-75.806 37.052-38.146 18.708c-6.074 3.037-13.485.486-16.522-5.71-1.458-2.916-1.701-6.317-.607-9.354 1.093-3.159 3.28-5.588 6.196-7.046l28.792-14.092 82.366-40.332c5.467-2.673 7.775-9.233 5.102-14.699-2.673-5.467-9.233-7.775-14.699-5.102l-82.487 40.454-3.159 1.579-39.361 19.316c-2.916 1.458-6.317 1.701-9.354.607-3.159-1.093-5.588-3.28-7.046-6.196-3.037-6.074-.486-13.485 5.71-16.522l13.606-6.682 27.82-13.606 7.775-3.766 63.9-31.343c5.467-2.673 7.775-9.233 5.102-14.699-2.673-5.467-9.233-7.775-14.699-5.102l-69.245 33.894-30.249 14.821c-6.074 2.916-13.485.486-16.522-5.71-1.458-2.916-1.701-6.317-.607-9.354 1.093-3.159 3.28-5.588 6.196-7.046l52.845-25.876c5.467-2.673 7.775-9.233 5.102-14.699-2.673-5.467-9.233-7.775-14.699-5.102l-52.845 25.876c-8.261 4.009-14.457 11.055-17.372 19.68-2.916 8.625-2.43 17.979 1.579 26.24 2.551 5.102 6.196 9.354 10.569 12.513-7.653 10.083-9.597 23.932-3.645 36.081 4.009 8.261 11.055 14.456 19.68 17.372 3.645 1.215 7.289 1.822 10.933 1.822-.121 5.467.972 10.933 3.523 15.914 5.953 12.148 18.222 19.194 30.857 19.194 5.102 0 10.205-1.093 15.064-3.523l7.775-3.766c.364 4.13 1.458 8.139 3.28 12.027 5.953 12.148 18.222 19.194 30.857 19.194 5.102 0 10.205-1.093 15.064-3.523l138.612-67.788c30.857-15.064 59.284-34.501 84.552-57.705l30.978-28.549 70.946-34.744c5.467-2.673 7.775-9.233 5.102-14.699l-86.739-176.758c-1.336-2.673-3.523-4.616-6.317-5.588-2.794-.972-5.831-.729-8.382.486l-72.404 35.352c-5.467 2.673-7.775 9.233-5.102 14.699l83.093 169.712zm-5.831-195.102l76.899 157.321-52.602 25.754-76.899-157.321 52.602-25.754z"/></svg>