<svg xmlns="http://www.w3.org/2000/svg" width="595.28" height="841.89" viewBox="0 0 595.28 841.89"><path fill="#A7A9AC" d="M584.087 672.841v-29.807a21.086 21.086 0 0 0-7.665-16.302c-27.008-22.142-56.085-36.863-62.046-39.783-.608-.365-1.095-.973-1.095-1.703v-41.973c5.231-3.528 8.759-9.489 8.759-16.302v-43.554c0-21.655-17.519-39.296-39.296-39.296h-9.489c-21.655 0-39.296 17.519-39.296 39.296v43.311c0 6.813 3.528 12.774 8.76 16.302v42.094c0 .73-.365 1.46-1.095 1.703-5.961 2.92-35.038 17.641-62.046 39.783a21.09 21.09 0 0 0-7.665 16.302v29.807"/><path fill="#3C92CA" d="M222.759 672.841v-29.807a21.086 21.086 0 0 0-7.665-16.302c-27.008-22.142-56.085-36.863-62.046-39.783-.608-.365-1.095-.973-1.095-1.703v-41.973c5.231-3.528 8.759-9.489 8.759-16.302v-43.554c0-21.655-17.519-39.296-39.296-39.296h-9.49c-21.655 0-39.296 17.519-39.296 39.296v43.311c0 6.813 3.528 12.774 8.759 16.302v42.094c0 .73-.365 1.46-1.095 1.703-5.961 2.92-35.038 17.641-62.046 39.783a21.09 21.09 0 0 0-7.665 16.302v29.807"/><path fill="#FFF" d="M298.431 409.57c-6.083 0-11.071 4.988-11.071 11.071v69.833l-60.465 34.916c-5.231 3.042-7.056 9.733-4.015 15.086 2.068 3.528 5.718 5.475 9.611 5.475 1.825 0 3.771-.487 5.475-1.46l60.465-34.916 60.465 34.916c1.703.973 3.65 1.46 5.475 1.46 3.771 0 7.543-1.947 9.611-5.475 3.041-5.231 1.217-12.044-4.015-15.086l-60.465-34.916v-69.833c-.122-6.083-4.988-11.071-11.071-11.071zm-47.204-104.992c-11.193 5.84-35.89 19.587-59.127 38.566-7.421 6.083-11.679 15.207-11.679 24.819v29.807c0 6.083 4.988 11.071 11.071 11.071 6.083 0 11.071-4.988 11.071-11.071v-29.807c0-3.042 1.338-5.84 3.65-7.786 26.157-21.412 54.503-35.768 59.856-38.444a12.924 12.924 0 0 0 7.3-11.679V268.08c0-3.65-1.825-7.178-4.866-9.124a8.526 8.526 0 0 1-3.893-7.178v-43.554c0-15.572 12.653-28.225 28.225-28.225h9.368c15.572 0 28.225 12.653 28.225 28.225v43.554c0 2.92-1.46 5.596-3.893 7.178-3.042 2.068-4.866 5.475-4.866 9.124v42.094c0 4.988 2.798 9.489 7.3 11.679 5.475 2.677 33.7 16.911 59.857 38.444 2.312 1.947 3.65 4.745 3.65 7.786v29.807c0 6.083 4.988 11.071 11.071 11.071 6.083 0 11.071-4.988 11.071-11.071v-29.807c0-9.611-4.258-18.736-11.679-24.819-23.115-18.979-47.934-32.848-59.127-38.566V273.31c5.596-5.718 8.759-13.383 8.759-21.412v-43.676c0-27.738-22.507-50.245-50.245-50.245h-9.368c-27.738 0-50.245 22.507-50.245 50.245v43.554c0 8.151 3.163 15.816 8.759 21.412v31.388h-.245zM112.17 454.949h9.368c15.572 0 28.225 12.653 28.225 28.225v43.554c0 2.92-1.46 5.596-3.893 7.178-3.041 2.068-4.866 5.475-4.866 9.124v42.094c0 4.988 2.798 9.489 7.3 11.679 5.475 2.677 33.7 16.911 59.856 38.444 2.312 1.947 3.65 4.745 3.65 7.786v29.807c0 6.083 4.988 11.071 11.071 11.071s11.071-4.988 11.071-11.071v-29.807c0-9.611-4.258-18.736-11.679-24.819-23.115-18.979-47.934-32.848-59.127-38.566V548.26c5.596-5.718 8.759-13.383 8.759-21.412v-43.554c0-27.738-22.507-50.245-50.245-50.245h-9.368c-27.738 0-50.245 22.507-50.245 50.245v43.432c0 8.151 3.163 15.816 8.759 21.412v31.388c-11.193 5.84-35.89 19.587-59.127 38.566C4.258 624.177 0 633.302 0 642.913v29.807c0 6.083 4.988 11.071 11.071 11.071s11.071-4.988 11.071-11.071v-29.807c0-3.041 1.338-5.84 3.65-7.786 26.157-21.412 54.503-35.768 59.856-38.444a12.924 12.924 0 0 0 7.3-11.679V543.03c0-3.65-1.825-7.178-4.866-9.124a8.526 8.526 0 0 1-3.893-7.178v-43.554c-.244-15.573 12.409-28.225 27.981-28.225zm260.595 163.145c-7.421 6.083-11.679 15.207-11.679 24.819v29.807c0 6.083 4.988 11.071 11.071 11.071s11.071-4.988 11.071-11.071v-29.807c0-3.041 1.338-5.84 3.65-7.786 26.157-21.412 54.503-35.768 59.857-38.444a12.924 12.924 0 0 0 7.3-11.679V543.03c0-3.65-1.825-7.178-4.866-9.124a8.526 8.526 0 0 1-3.893-7.178v-43.554c0-15.572 12.653-28.225 28.225-28.225h9.368c15.572 0 28.225 12.653 28.225 28.225v43.554c0 2.92-1.46 5.596-3.893 7.178-3.041 2.068-4.866 5.475-4.866 9.124v42.094c0 4.988 2.798 9.489 7.3 11.679 5.475 2.677 33.7 16.911 59.856 38.444 2.312 1.947 3.65 4.745 3.65 7.786v29.807c0 6.083 4.988 11.071 11.071 11.071 6.083 0 11.071-4.988 11.071-11.071v-29.807c0-9.611-4.258-18.736-11.679-24.819-23.115-18.979-47.934-32.848-59.127-38.566V548.26c5.596-5.718 8.759-13.383 8.759-21.412v-43.554c0-27.738-22.507-50.245-50.245-50.245h-9.368c-27.738 0-50.245 22.507-50.245 50.245v43.432c0 8.151 3.163 15.816 8.76 21.412v31.388c-11.439 5.842-36.136 19.589-59.373 38.568z"/></svg>