<svg xmlns="http://www.w3.org/2000/svg" width="595.28" height="841.89" viewBox="0 0 595.28 841.89"><path fill="#3C92CA" d="M548.575 709.085l37.144-37.144a12.429 12.429 0 0 0 0-17.652l-182.9-182.9-54.796 54.796 182.899 182.899a12.43 12.43 0 0 0 17.653.001z"/><path fill="#FFF" d="M200.306 205.499c-65.216 0-118.296 53.08-118.296 118.296 0 6.129 5.026 11.155 11.155 11.155s11.155-5.026 11.155-11.155c0-52.957 43.028-95.985 95.985-95.985 6.129 0 11.155-5.026 11.155-11.155a11.115 11.115 0 0 0-11.154-11.156z"/><path fill="#FFF" d="M410.665 463.544c-4.291-4.291-11.401-4.291-15.691 0l-19.491 19.491-25.866-25.866c31.75-35.427 51.119-82.256 51.119-133.497 0-110.45-89.856-200.306-200.306-200.306S0 213.222 0 323.673s89.856 200.306 200.306 200.306c51.241 0 97.947-19.369 133.497-51.119l25.866 25.866-19.491 19.491c-2.084 2.084-3.31 4.904-3.31 7.846s1.226 5.762 3.31 7.846l173.95 173.95c6.865 6.865 15.936 10.665 25.621 10.665s18.756-3.8 25.621-10.665l19.246-19.246c6.865-6.865 10.665-15.936 10.665-25.621s-3.8-18.756-10.665-25.621L410.665 463.544zM22.311 323.673c0-98.192 79.926-178.118 178.118-178.118s178.118 79.926 178.118 178.118-79.926 178.118-178.118 178.118S22.311 421.864 22.311 323.673zm546.613 349.371l-19.246 19.246c-2.697 2.697-6.129 4.168-9.93 4.168s-7.233-1.471-9.93-4.168L363.714 526.186l39.105-39.105 166.105 166.105c2.697 2.697 4.168 6.129 4.168 9.93s-1.594 7.354-4.168 9.928z"/></svg>