<?xml version="1.0" encoding="utf-8"?>
<!-- Generator: Adobe Illustrator 17.0.0, SVG Export Plug-In . SVG Version: 6.00 Build 0)  -->
<!DOCTYPE svg PUBLIC "-//W3C//DTD SVG 1.1//EN" "http://www.w3.org/Graphics/SVG/1.1/DTD/svg11.dtd">
<svg version="1.1" id="Layer_1" xmlns="http://www.w3.org/2000/svg" xmlns:xlink="http://www.w3.org/1999/xlink" x="0px" y="0px"
	 width="595.28px" height="841.89px" viewBox="0 0 595.28 841.89" enable-background="new 0 0 595.28 841.89" xml:space="preserve">
<g>
	<g>
		<polyline id="XMLID_606_" fill="#3C92CA" points="316.235,471.504 325.715,681.517 296.911,707.525 268.593,681.881 
			277.708,471.504 		"/>
		<path fill="#FFFFFF" d="M80.699,614.551c6.077,0,11.06-4.983,11.06-11.06v-61.254c0-9.723,4.254-18.838,11.667-24.915
			c54.569-44.846,113.636-74.623,124.938-80.213c5.226-2.552,8.386-7.657,8.386-13.49V337.45c0-3.646-1.823-7.171-4.861-9.115
			c-8.143-5.469-13.126-14.584-13.126-24.307v-89.207c0-38.284,31.113-69.397,69.397-69.397h19.203
			c38.284,0,69.397,31.113,69.397,69.397v89.328c0,9.844-4.861,18.838-13.126,24.307c-3.038,2.066-4.861,5.469-4.861,9.115v86.169
			c0,5.834,3.281,10.938,8.386,13.49c11.303,5.469,70.491,35.367,124.938,80.213c7.414,6.077,11.667,15.192,11.667,24.915v61.254
			c0,6.077,4.983,11.06,11.06,11.06s11.06-4.983,11.06-11.06v-61.254c0-16.286-7.171-31.599-19.81-41.93
			c-51.653-42.416-107.316-71.949-125.303-80.943v-76.324c11.303-9.723,17.987-23.821,17.987-39.013v-89.328
			c0-50.437-41.079-91.516-91.516-91.516h-19.203c-50.437,0-91.516,41.079-91.516,91.516v89.328c0,15.07,6.684,29.29,17.987,39.013
			v76.324c-17.987,8.994-73.65,38.527-125.303,80.943c-12.518,10.331-19.81,25.644-19.81,41.93v61.254
			C69.761,609.568,74.623,614.551,80.699,614.551z"/>
		<path fill="#FFFFFF" d="M327.416,437.474c-6.077,0-11.06,4.983-11.06,11.06c0,5.469-2.309,10.331-6.077,13.733
			c-0.729,0.486-1.458,0.972-2.066,1.702c-2.917,2.066-6.563,3.16-10.452,3.16c-10.209,0-18.595-8.386-18.595-18.595
			c0-6.077-4.983-11.06-11.06-11.06c-6.077,0-11.06,4.983-11.06,11.06c0,9.723,3.525,18.716,9.237,25.766l-8.994,207.218
			c-0.122,3.281,1.215,6.441,3.646,8.629l28.318,25.644c2.066,1.945,4.74,2.795,7.414,2.795s5.348-0.972,7.414-2.795l28.804-26.009
			c2.431-2.188,3.768-5.348,3.646-8.629l-9.237-204.787c6.806-7.292,11.06-17.015,11.06-27.71
			C338.476,442.457,333.493,437.474,327.416,437.474z M296.911,692.698l-17.136-15.435l8.143-189.474
			c3.16,0.851,6.441,1.215,9.844,1.215c2.795,0,5.469-0.243,8.143-0.851l8.507,188.501L296.911,692.698z"/>
	</g>
</g>
</svg>
